<svg xmlns="http://www.w3.org/2000/svg" width="800" height="800" viewBox="0 0 800 800"><path fill="#ddf1f0" d="M0 0h800.001v800.001H0z"/><path d="M400.406 281.406c12.19-7.483 23.352-7.795 37.163-9.568l36.842-4.566c14.259-1.757 30.003-4.963 43.947-4.819a109.3 109.3 0 0 1 33.227 5.675 106.31 106.31 0 0 1 61.157 54.728c2.65 5.654 4.445 13.952 6.483 18.131 4.386.43 9.39-1.03 14.573-.07 6.181 1.147 11.664 3.862 15.432 9.089 3.456 4.794 4.592 11.16 3.41 16.925-1.671 10.61-12.991 17.81-23.327 17.013-11.992-.928-8.174-2.578-11.278 8.662-6.498 23.517-21.357 44.397-41.544 58.099a106.9 106.9 0 0 1-80.221 16.114c-24.2-4.752-50.077-20.55-63.968-41.208a102.35 102.35 0 0 1-18.979-69.624c.728-7.35 3.112-14.136 3.768-20.264-1.466-1.136-4.341-1.456-6.07-2.25-4.466-2.06-7.263-4.257-10.738-7.566-3.901 3.79-7.061 5.936-12.144 7.936-.075.032-4.845 2.496-4.675 1.827-.717 2.81 1.91 10.445 2.5 13.504 2.228 11.541 1.951 22.986-.052 34.472a103.5 103.5 0 0 1-42.304 66.077 104.57 104.57 0 0 1-79.358 17.39 104.04 104.04 0 0 1-73.233-52.704c-3.875-7.144-6.395-13.256-8.902-20.974-.97-2.984-1.068-7.84-2.738-10.237-3.407.632-6.97 1.352-10.439 1.234-12.855-.437-22.445-10.08-21.451-23.266a21.3 21.3 0 0 1 7.777-14.979c7.884-6.432 16.345-5.419 25.498-4.552.882-1.232 3.595-10.41 4.556-12.747 16.666-40.525 49.264-62.36 92.04-66.207 6.936-.203 13.874.152 20.752 1.063 4.496.626 10.285 2.013 14.637 2.292 17.664 1.135 34.987 3.954 52.49 6.292 13.74 1.835 22.937 1.6 35.169 9.078"/><path fill="#098e9d" d="M432.95 365.672c-2.197-13.34 7.736-36.005 15.528-46.893a85.53 85.53 0 0 1 56.923-35.293c47.042-7.422 89.12 23.725 96.133 70.773.483 3.245 1.315 8.712.55 11.893-.134 1.272.002.646.295 1.374.872 2.17-.338 13.226-1.36 14.725-.32.99-.626 1.795-.76 2.832-.546 1.48-1.584 4.41-1.912 5.987-.386 1.237-1.064 3.957-1.573 4.912l-.36.104c-.552 1.248-.965 2.218-1.421 3.501-.763 1.408-.779 1.422-1.158 2.97l-.477.22c-1.235 1.81-2.09 4.205-3.008 5.429-.264 1.253-1.077 1.688-1.744 2.997l-.39.174-3.237 4.669c-.202 1.45-3.738 5.512-5.144 6.28-.445.51-1.97 2.2-2.282 2.664-.95.877-2.035 1.859-2.774 2.915l-.576.005c-1.773 1.315-3.298 2.477-5.005 3.89-.752.79-3.25 3.15-4.232 3.222-1.797 1.067-3.275 1.96-5.179 2.856.464 3.501 2.272 2.203 2.622 4.504-1.934.216-3.918-1.376-6.166-.797-.458.117-1.506.058-2.018-.016l-.894-.478c-4.218 3.038-18.066 6.446-23.416 6.8-3.989 2.59-30.456.464-35.029-1.69-2.317-.155-7.304-1.862-9.616-2.675-1.515-.635-3.344-1.587-4.853-2.317-1.032.002-.518.082-1.518-.582-1.466-1.536-3.221-.405-5.538-3.352-.302-.077-2.198-1.144-2.6-1.36-1.542-.226-4.854-2.89-5.915-4.112-1.437-1.432-3-2.73-4.672-3.88l-.413.006c-.891-1.003-1.723-1.648-2.5-2.755a165 165 0 0 0-3.087-3.328c-2.024-1.397-7.53-7.733-8.09-10.488l-.5-.347c-.509-1.496-1.247-1.685-1.583-3.192-1.187-1.704-1.635-3.162-3.003-5.016-1.293-.914.376-.898-1.301-2.992-.355-.992-.52-1.712-1.195-2.523-1.61-1.978-1.77-4.21-2.635-6.826l.08-.73c-1.488-1.308-2.08-6.196-2.186-8.156l-.203-1.304c-1.459-1.672-.547-3.416-.699-5.464l-.056-.66c-1.813-1.356-.845-6.63.147-8.476"/><path fill="#0a8f9c" d="M432.95 365.672c9.776 5.195 23.696 5.656 34.312 2.795l2.275-.885c2.024 1.538 2.066 5.408 3.6 8.368 11.008 25.07 39.789 36.003 64.736 24.667 5.229-2.377 11.381-6.705 15.17-11.04 3.491-3.377 6.334-8.395 8.6-12.611 1.411-2.408 2.032-6.59 3.651-9.342l.96-.034c1.264.338 2.55.557 3.603 1.285l1.602-.075c5.275 2.71 17.718 1.195 23.302-.498 2.27-.688 5.082-1.808 7.322-2.15-.133 1.272.003.646.296 1.374.872 2.17-.338 13.226-1.36 14.725-.32.99-.626 1.795-.76 2.832-.546 1.48-1.584 4.41-1.912 5.987-.386 1.237-1.064 3.957-1.573 4.912l-.36.104c-.552 1.248-.965 2.218-1.421 3.501-.763 1.408-.779 1.422-1.158 2.97l-.477.22c-1.235 1.81-2.09 4.205-3.008 5.429-.264 1.253-1.077 1.688-1.744 2.997l-.39.174-3.237 4.669c-.202 1.45-3.738 5.512-5.144 6.28-.445.51-1.97 2.2-2.282 2.664-.95.877-2.035 1.859-2.774 2.915l-.576.005c-1.773 1.315-3.298 2.477-5.005 3.89-.752.79-3.25 3.15-4.232 3.222-1.797 1.067-3.275 1.96-5.179 2.856.464 3.501 2.272 2.203 2.622 4.504-1.934.216-3.918-1.376-6.166-.797-.458.117-1.506.058-2.018-.016l-.894-.478c-4.218 3.038-18.066 6.446-23.416 6.8-3.989 2.59-30.456.464-35.029-1.69-2.317-.155-7.304-1.862-9.616-2.675-1.515-.635-3.344-1.587-4.853-2.317-1.032.002-.518.082-1.518-.582-1.466-1.536-3.221-.405-5.538-3.352-.302-.077-2.198-1.144-2.6-1.36-1.542-.226-4.854-2.89-5.915-4.112-1.437-1.432-3-2.73-4.672-3.88l-.413.006c-.891-1.003-1.723-1.648-2.5-2.755a165 165 0 0 0-3.087-3.328c-2.024-1.397-7.53-7.733-8.09-10.488l-.5-.347c-.509-1.496-1.247-1.685-1.583-3.192-1.187-1.704-1.635-3.162-3.003-5.016-1.293-.914.376-.898-1.301-2.992-.355-.992-.52-1.712-1.195-2.523-1.61-1.978-1.77-4.21-2.635-6.826l.08-.73c-1.488-1.308-2.08-6.196-2.186-8.156l-.203-1.304c-1.459-1.672-.547-3.416-.699-5.464l-.056-.66c-1.813-1.356-.845-6.63.147-8.476"/><path fill="#00232f" d="M432.95 365.672c9.776 5.195 23.696 5.656 34.312 2.795l2.275-.885c2.024 1.538 2.066 5.408 3.6 8.368 11.008 25.07 39.789 36.003 64.736 24.667 5.229-2.377 11.381-6.705 15.17-11.04 3.491-3.377 6.334-8.395 8.6-12.611 1.411-2.408 2.032-6.59 3.651-9.342l.96-.034c1.264.338 2.55.557 3.603 1.285l1.602-.075c5.275 2.71 17.718 1.195 23.302-.498 2.27-.688 5.082-1.808 7.322-2.15-.133 1.272.003.646.296 1.374.872 2.17-.338 13.226-1.36 14.725-.32.99-.626 1.795-.76 2.832-.546 1.48-1.584 4.41-1.912 5.987-.386 1.237-1.064 3.957-1.573 4.912l-.36.104c-.552 1.248-.965 2.218-1.421 3.501-.763 1.408-.779 1.422-1.158 2.97l-.477.22c-1.235 1.81-2.09 4.205-3.008 5.429-4.627 2.216-14.821 2.056-19.747 1.197-10.232-1.784-22.821-3.856-33.122-2.01-14.574 2.608-23.822 3.514-38.272.005-7.987-1.941-19.707-.155-27.728.96-.79.125-.432.112-1.198.037-2.25.683-3.75 1.243-6.141.808q-.636.185-1.28.344c-4.168 1.056-15.373.398-18.861-1.728-1.187-1.704-1.635-3.162-3.003-5.016-1.293-.914.376-.898-1.301-2.992-.355-.992-.52-1.712-1.195-2.523-1.61-1.978-1.77-4.21-2.635-6.826l.08-.73c-1.488-1.308-2.08-6.196-2.186-8.156l-.203-1.304c-1.459-1.672-.547-3.416-.699-5.464l-.056-.66c-1.813-1.356-.845-6.63.147-8.476"/><path fill="#0a8f9c" d="M478.897 400.822c11.666-2.675 13.888.419 23.229 3.536a47.4 47.4 0 0 0 12.883 2.27c7.117.346 14.229-.8 20.874-3.369 2.632-.99 6.211-2.83 8.851-3.053 12.232-1.035 24.005 4.032 36.373 3.53 2.051-.082 11.291-1.863 12.155-1.335l.096.376c-1.235 1.81-2.09 4.205-3.008 5.429-4.627 2.216-14.821 2.056-19.747 1.197-10.232-1.784-22.821-3.856-33.122-2.01-14.574 2.608-23.822 3.514-38.272.005-7.987-1.941-19.707-.155-27.728.96-.79.125-.432.112-1.198.037-.965-.6-1.528-.557-2.701-.77l.275-.67c2.122-1.296 5.906-.76 6.957-2.336-.507-1.184-.904-1.122-2.19-1.986 5.334-2.6 7.649 1.597 15.054-.051l-.147-.253c-2.637-.43-7.208.128-8.634-1.507"/><path fill="#078f96" d="M543.057 401.76a16 16 0 0 1 2.864-.151c1.181.04 2.336.138 3.157 1.01l-.64.664c-1.93.04-4.37.776-5.813-.568z"/><path fill="#0d8c9f" d="M562.494 404.875c1.288-.018 2.296-.218 3.307.488-.611.934-.931.779-2.238 1.267l-2.829-.384-.136-.453.256.46-.584-.271c.893-.555 1.272-.696 2.224-1.107"/><path fill="#098e9d" d="M553.51 392.15c10.832.826 21.568 4.936 33.248 3.213 1.565-.232 9.315-1.755 10.013-1.24-.173.653-.464 1.363-.357 1.963-.552 1.248-.965 2.218-1.421 3.501-13.344 4.984-30.515.854-44.824-1.203-.875.168-3.707.083-4.752.078 1.373-1.08 2.578-2.08 4.072-3 1.373-1.208 2.512-2.262 4.021-3.312"/><path fill="#078f96" d="M549.489 395.462c4.437.034 2.402-1.398 5.016-1.923 1.378 2.685 6.821 1.739 9.677 1.899l-.259-.094.163.816-.11-.81-.05.92c-4.56 2.658-10.747-.254-13.757 2.114-.875.168-3.707.083-4.752.078 1.373-1.08 2.578-2.08 4.072-3"/><path fill="#098e9d" d="M481.849 392.18c2.416 2.084 5.056 4.495 7.698 6.223-11.984.053-20.35 3.016-32.082 3.638-6.803.362-12.23-1.832-17.768-2.23-.355-.992-.52-1.712-1.195-2.523-.179-1.05-.63-2.5-.867-3.77 1.12-.32 7.982 1.042 9.08 1.701 10.934.613 13.718.163 24.024-.853.814-.704 9.208-1.779 11.11-2.187"/><path fill="#0d8c9f" d="M446.715 395.22c10.934.612 13.718.162 24.024-.854-2.424 2.906-5.458.746-7.813 2.378-1.24.862-1.12 1.782-3.424 1.58-4.304-.257-9.232-.51-12.787-3.105"/><path fill="#098e9d" d="M598.347 391.07c-9.616 4.272-24.034 3.181-34.178 1.088-1.635-.339-7.427-1.504-8.747-1.563l-.352-.013-.064-.459c3.101-4.275 3.17-5.824 8.73-4.499 8.598 2.048 17.395 2.58 26.158 1.318 3.357-.483 7.107-1.603 10.365-1.859-.546 1.48-1.584 4.41-1.912 5.987"/><path fill="#098e9d" d="M562.185 379.147c.434-.704.426-1.056 1.08-1.093 3.789-.214 8.653 1.208 12.554 1.541 4.016.341 7.056.325 10.811.168 2.357-.101 13.835-3.117 14.683-2.88-.216 1.475-.747 3.995-.294 5.368-2.506 2.283-12.192 3.344-15.712 3.643-8.592.725-17.301-1.062-25.72-2.654z"/><path fill="#098e9d" d="M433.558 380.272c.027-1.474-.232-2.549.525-3.54 3.96.3 9.222 2.314 13.595 2.887 9.47 1.24 15.835-1.021 24.445-1.781 1.12 1.856 2.147 3.501 3.096 5.461-4.586.941-10.47 2.235-15.056 2.55-6.584.447-21.168-.19-26.402-4.273z"/><path fill="#098e9d" d="M476.02 384.74c1.365 1.815 2.717 3.682 4.215 5.386-1.917 1.664-16.09 3.33-19.154 3.605-4.74.427-19.243-.059-23.26-2.464l.348-1.421.709-.37c2.59.38 3.227.946 4.939-1.07-.688-.819-.92-.859-1.827-1.454l.181-.733c10.472 1.981 23.723 1.899 33.848-1.48"/><path fill="#078f96" d="m440.998 402.803.133-.685c1.678-1.13 6.483.896 9.059 1.035 6.187.33 12.099.5 18.216-.638 2.824-.525 7.973-1.75 10.49-1.693 1.427 1.635 5.998 1.077 8.635 1.507l.147.253c-7.405 1.648-9.72-2.55-15.053.05 1.285.865 1.682.803 2.189 1.987-1.05 1.576-4.835 1.04-6.957 2.336l-.275.67c1.173.213 1.736.17 2.701.77-2.25.683-3.75 1.243-6.141.808q-.636.185-1.28.344c-4.168 1.056-15.373.398-18.861-1.728-1.187-1.704-1.635-3.162-3.003-5.016"/><path fill="#0d8c9f" d="M464.142 409.203c-1.32-.914-1.859-1.63-2.435-3.064.846-3.408 8.632-1.672 10.918-3.506 1.285.864 1.682.802 2.189 1.986-1.05 1.576-4.835 1.04-6.957 2.336l-.275.67c1.173.213 1.736.17 2.701.77-2.25.683-3.75 1.243-6.141.808"/><path fill="#098e9d" d="M449.027 372.032c3.926-.197 7.89.02 11.8-.186 2.296-.118 6.222-2 8.432-1.894.987 1.542 1.776 3.776 1.819 5.592-1.915 1.08-8.63 2.408-10.872 2.464-4.125.206-6.957.176-11.037.024-1.08.03-1.816.195-2.67-.41 1.254-.544.963-.123 1.366-1.03l-.904-1.029.664-.437c.378.018.786.01 1.168.01-.912-1.306-3.008-.746-4.195-2.205 1.955-.181 2.813.296 4.43-.899"/><path fill="#0d8c9f" d="M449.169 378.032c1.869-1.14 9.194-1.186 11.037-.024-4.125.206-6.957.176-11.037.024"/><path fill="#0d8c9f" d="M432.803 374.147c-.032-2.155-.128-3.995.174-6.139l.613-.14c2.627 1.56 12.197 3.644 15.437 4.164-1.616 1.195-2.474.718-4.43.9 1.188 1.458 3.284.898 4.196 2.204-.382 0-.79.008-1.168-.01l-.664.437.904 1.03c-.403.906-.112.485-1.366 1.029-4.37-.464-9.512-2.07-13.696-3.475"/><path fill="#078f96" d="M435.947 389.731c-.261-1.925-1.277-2.81-.13-4.67 1.917-.583 3.48.603 5.709 1.038l.645.12-.181.733c.907.595 1.139.635 1.827 1.454-1.712 2.016-2.35 1.45-4.94 1.07l-.708.37-.347 1.421c-.888-.04-1.064-.307-1.955-.805z"/><path fill="#0d8c9f" d="m601.166 368.155.71.013c1.357 2.702-.598 6.798-3.513 7.568-9.714 2.576-23.418 3.896-32.96.088l-1.232-.22c-.394-1.772.835-3.252 1.446-4.926.138-.382.344-.976.792-.888 3.072.608 6.837 1.592 9.893 1.896 9.421.933 16.165-.262 24.864-3.53"/><path fill="#098e9d" d="M464.846 431.803c3.568 2.054 7.787-.008 11.773-.27 3.128-.204 6.219-.663 9.379-.602 11.405-.554 22.144 3.238 33.49 2.998 6.38-.136 12.526-1.656 18.803-2.576 7.11-.944 15.579-.512 22.678.52l.461-.008c3.384.82 4.864 1.658 7.768-.064-.752.789-3.25 3.149-4.232 3.22-1.797 1.068-3.275 1.96-5.179 2.857.464 3.501 2.272 2.203 2.622 4.504-1.934.216-3.918-1.376-6.166-.797-.458.117-1.506.058-2.018-.016l-.894-.478c-4.218 3.038-18.066 6.446-23.416 6.8-3.989 2.59-30.456.464-35.029-1.69-2.317-.155-7.304-1.862-9.616-2.675-1.515-.635-3.344-1.587-4.853-2.317-1.032.002-.518.082-1.518-.582-1.466-1.536-3.221-.405-5.538-3.352-.302-.077-2.198-1.144-2.6-1.36-1.542-.226-4.854-2.89-5.915-4.112"/><path fill="#098e9d" d="M480.417 441.209c4.968-3.16 31.76 3.098 39.68 2.28 4.866-.502 31.088-4.862 33.234-2.398-4.218 3.038-18.066 6.446-23.416 6.8-3.989 2.59-30.456.464-35.029-1.69-2.317-.155-7.304-1.862-9.616-2.675-1.515-.635-3.344-1.587-4.853-2.317"/><path fill="#078f96" d="M494.886 446.2c7.453-.202 29.424-3.738 35.09-.365.529 1.206.438.552-.06 2.056-3.99 2.59-30.457.464-35.03-1.69"/><path fill="#0a8f9c" d="M498.027 443.145c1.435-.1.811-.26 1.976.3l.166.644-.44.664c-1.528.938-2.667.568-4.512.362-1.136-.024-.656.17-1.488-.616l.149.41-.37-.452c.954-.592 3.271-.963 4.52-1.312"/><path fill="#00232f" d="M464.846 431.803c3.568 2.054 7.787-.008 11.773-.27 3.128-.204 6.219-.663 9.379-.602 11.405-.554 22.144 3.238 33.49 2.998 6.38-.136 12.526-1.656 18.803-2.576 7.11-.944 15.579-.512 22.678.52l.461-.008c3.384.82 4.864 1.658 7.768-.064-.752.789-3.25 3.149-4.232 3.22-3.283-2.948-16.43-2.444-21.208-2.343-10.816.421-20.597 3.981-31.544 2.704-5.16-.603-12.256-2.363-17.144-2.464a150 150 0 0 0-17.272.027c-2.035.173-5.683.498-7.437 1.306l-.47.659.87 1.005c-1.542-.226-4.854-2.89-5.915-4.112"/><path fill="#00232f" d="M473.36 437.275c1.198.614 2.369 1.206 3.542 1.87 4.579-.171 13.693-.622 18.048-.02 8.637 1.193 13.883 2.457 22.827 2.542 9.96.096 17.25-2.266 26.984-2.984 5.242-.386 10.024 1.448 14.834-.482l.192-.323c.464 3.501 2.272 2.203 2.622 4.504-1.934.216-3.918-1.376-6.166-.797-.458.117-1.506.058-2.018-.016l-.894-.478c-2.146-2.464-28.368 1.896-33.234 2.398-7.92.818-34.712-5.44-39.68-2.28-1.032.002-.518.082-1.518-.582-1.466-1.536-3.221-.405-5.538-3.352"/><path fill="#070005" d="M559.787 437.878c.464 3.501 2.272 2.203 2.622 4.504-1.934.216-3.918-1.376-6.166-.797-.458.117-1.506.058-2.018-.016 2.048-2.238 3.498-1.104 5.37-3.368z"/><path fill="#0a8f9c" d="M477.798 432.945c5.752-.342 11.52-.35 17.272-.027-1.752 1.075-15.547 1.123-17.272.027"/><path fill="#0a8f9c" d="M457.262 425.174c4.765 1.712 20.664-2.512 27.75-2.512 10.98-.005 18.543 2.144 29.255 3.139 8.299.768 15.187-1.312 23.038-2.395 1.442-.045 2.765.173 3.762-.547 4.638-.165 7.587-.066 12.043.072 6.203.192 19.67 3.638 24.443 2.059-.95.877-2.035 1.859-2.774 2.915l-.576.005c-1.773 1.315-3.298 2.477-5.005 3.89-2.904 1.723-4.384.886-7.768.065l-.461.008c-7.099-1.032-15.568-1.464-22.678-.52-6.277.92-12.424 2.44-18.802 2.576-11.347.24-22.086-3.552-33.491-2.998-3.16-.061-6.25.398-9.379.603-3.986.261-8.205 2.323-11.773.27-1.437-1.433-3-2.731-4.672-3.88l-.413.005c-.891-1.003-1.723-1.648-2.5-2.755"/><path fill="#00232f" d="M457.262 425.174c4.765 1.712 20.664-2.512 27.75-2.512 10.98-.005 18.543 2.144 29.255 3.139 8.299.768 15.187-1.312 23.038-2.395 1.442-.045 2.765.173 3.762-.547 4.638-.165 7.587-.066 12.043.072 6.203.192 19.67 3.638 24.443 2.059-.95.877-2.035 1.859-2.774 2.915l-.576.005c-1.773 1.315-3.298 2.477-5.005 3.89-2.904 1.723-4.384.886-7.768.065 3.264-1.14 4.53-1.752 4.861-5.291-7.314-2.317-22.029-2.699-29.765-1.384-2.403.408-4.573 1.059-6.933 1.347-7.048 1.237-13.251 1.237-20.355.576-2.083-.712-4.104-.726-6.368-1.216-14.11-3.06-27.976-.648-41.97 1.6q-.363.21-.726.426l-.413.006c-.891-1.003-1.723-1.648-2.5-2.755"/><path fill="#0d8c9f" d="M566.291 426.574c2.328.064 6.366-.23 7.912 1.336-1.773 1.315-3.298 2.477-5.005 3.89-2.904 1.723-4.384.886-7.768.065 3.264-1.14 4.53-1.752 4.861-5.291"/><path fill="#0d8c9f" d="M509.238 427.113c7.104.66 13.307.66 20.355-.576-.851 1.3-.782 1.256-2.134 2.002l-.269.71.933.848c-1.901 2.482-9 1.509-12.042 1.554-3.96.059-12.435 1.155-15.646-1.16l-.037-.45c.483-.072.917-.118 1.384-.267 2.685-.867 5.333.363 8.083-.33-.296-.966-.211-.758-.67-1.617z"/><path fill="#098e9d" d="M485.083 416.446c2.467.008 12.726.165 14.395 1.112 9.853 1.49 16.624 2.773 26.808 1.699 3.979 1.01 6.299 1.77 10.293.597l.632.336c.067 1.147.11 2.053.094 3.216-7.851 1.083-14.739 3.163-23.038 2.395-10.712-.995-18.274-3.144-29.256-3.14-7.085 0-22.984 4.225-27.75 2.513a165 165 0 0 0-3.087-3.328c-.733-1.28-1.232-1.597-1.136-2.797 2.685.178 6.467.504 9.077.34 7.374-.452 15.64-2.786 22.968-2.943"/><path fill="#078f96" d="M485.083 416.446c2.467.008 12.726.165 14.395 1.112-1.141-.144-4.216-.437-5.077.2.506.27.544.208.898.608-3.55.907-17.338 3.44-19.661.89l.275-.629c2.818-.176 6.098-1.03 8.738-2.018z"/><path fill="#078f96" d="M507.057 422.123c2.576-.32 4.837-1.317 6.133 1.136-2.885.262-3.955.595-6.133-1.136"/><path fill="#0a8f9c" d="M526.286 419.257c.648-.392 3.64-.678 4.581-.838 7.302-1.245 17.147-2.757 24.507-1.464 10.267.624 14.795 2.776 26.059 2.299-.475 1.472-.728 1.752-1.598 3.072-.445.51-1.97 2.2-2.282 2.664-4.774 1.579-18.24-1.867-24.443-2.059-4.456-.138-7.405-.237-12.043-.072-.997.72-2.32.502-3.762.547.016-1.163-.027-2.07-.094-3.216l-.632-.336c-3.994 1.173-6.314.413-10.293-.597"/><path fill="#00232f" d="M446.083 411.358c1.544 1.453 2.89 3.923 4.406 5.667 6.525 1.034 9 1.098 15.632.168.762-.11 5.517-.736 5.976-.736 6.592-1.624 20.282-2.371 26.605-.824 16.704 4.093 29.25 1.405 45.805-.688 8.483-1.07 18.672 1.552 27.155 2.477 3.95.43 9.96 1.301 13.317-1.376-.202 1.45-3.738 5.512-5.144 6.28.87-1.32 1.123-1.6 1.598-3.072-11.264.477-15.792-1.675-26.059-2.299-7.36-1.293-17.205.219-24.507 1.464-.941.16-3.933.446-4.581.838-10.184 1.074-16.955-.208-26.808-1.7-1.67-.946-11.928-1.103-14.395-1.111-7.328.157-15.594 2.49-22.968 2.944-2.61.163-6.392-.163-9.077-.341-.096 1.2.403 1.517 1.136 2.797-2.024-1.397-7.53-7.733-8.09-10.488"/><path fill="#00232f" d="M470.283 408.395c.766.075.408.088 1.198-.037 8.02-1.115 19.74-2.901 27.728-.96 14.45 3.51 23.698 2.603 38.272-.005 10.301-1.846 22.89.226 33.122 2.01 4.926.859 15.12 1.019 19.747-1.197-.264 1.253-1.077 1.688-1.744 2.997l-.39.174c-1.906-1.198-9.074.429-12.05.184-10.656-.875-18.576-3.283-29.413-3.195-9.211-.637-21.182 3.883-30.048 3.053-17.006-1.594-32.59-5.91-49.648-.373-1.63.53-5.488-.96-7.742.768-3.96-.941-8.693-.93-12.834-1.315l-.398.859-.498-.347c-.51-1.496-1.248-1.685-1.584-3.192 3.488 2.126 14.693 2.784 18.86 1.728q.645-.16 1.28-.344c2.393.435 3.892-.125 6.142-.808"/><path fill="#098e9d" d="m446.083 411.358.398-.859c4.14.384 8.874.374 12.834 1.315l2.168.133.102.238q-3.377.131-6.75.306c-2.43.059-1.472-.237-3.602 1.328l-.382.83c1.23.698 4.918.306 6.566.21l.514-.424c-.792-.97-.85-.89-2.018-1.421 1.189.021 3.733.037 4.77.32 2.56.699 11.163-.603 12.648 1.299-.35.498-.965 1.322-1.234 1.824-.46 0-5.214.626-5.976.736-6.632.93-9.107.866-15.632-.168-1.515-1.744-2.862-4.214-4.406-5.667"/><path fill="#ddf1f0" d="M432.95 365.672c-2.197-13.34 7.736-36.005 15.528-46.893a85.53 85.53 0 0 1 56.923-35.293c47.042-7.422 89.12 23.725 96.133 70.773.483 3.245 1.315 8.712.55 11.893-2.24.342-5.054 1.462-7.323 2.15-5.584 1.693-18.027 3.208-23.302.498l-1.602.075c-1.054-.728-2.339-.947-3.603-1.285-.125-.152-.384-.739-.483-.944q.153-.801.256-1.608c2.187-16.555-3.282-32.947-16.077-44.038-5.555-4.816-15.008-10.077-22.437-10.912-3.648-1.354-11.558-.82-15.664-.693-15.616 3.227-25.878 8.693-35.152 22.344-1.68 2.475-5.552 9.488-5.552 12.352-1.968 3.843-2.222 13.275-2.355 17.821.69 1.827.787 3.715.747 5.67l-2.275.885c-10.616 2.861-24.536 2.4-34.312-2.795"/><path fill="#d8f2ec" d="m467.262 368.467.64-.96-.27-.421c-.991.184-1.671.421-2.629.133.032-.477.046-.765.294-1.168 1.826-2.965-.32-7.659-.062-10.968.115-1.48.936-2.477.776-4.264-1.68-1.243-2.394-1.333-1.808-3.39.603.614.603 1.123.867 2.04l.405-.066.632-1.96c1.814 2.853.342 16.333 1.984 18.608.683-.976.619-2.843.699-4.139.69 1.827.787 3.715.747 5.67z"/><path fill="#d8f2ec" d="M516.523 306.208c1.563.048 2.907.067 4.467.022 1.917.485 5.616 2.064 6.523 3.858-3.648-1.354-11.558-.82-15.664-.693 1.41-2.227 2.237-2.264 4.674-3.187"/><path fill="#e1eff0" d="M516.523 306.208c-1.429-.029-2.25.11-3.448-.65.886-.974 10.504-1.342 11.731-.358l-.28.72c-1.232.528-2.187.358-3.536.31-1.56.045-2.904.026-4.467-.022"/><path fill="#e1eff0" d="M569.857 368.875c-.616-1.875-.35-3.536 1.856-3.79 1.181.854 1.346 1.374 1.522 2.897l1.11.557-2.886.261z"/><path fill="#d8f2ec" d="M449.894 365.691c2.712-.12 10.45-.088 13.07.267l.191 1.013c-2.386.36-10.144.787-12.584.133-.517-.138-.477-.685-.677-1.413"/><path fill="#e1eff0" d="M534.491 307.062c1.888.03 1.566-.256 2.907.621l-.09.701-1.08.8c-1.505-.442-1.91.016-2.787-.714z"/><path fill="#0d8c9f" d="M471.145 344.091c.552 8.147.178 14.677-.104 22.816 1.624.699 2.128-.381 3.757.73.725 1.243.635 1.294.672 2.689l-.419.448-1.376-.102c-.576 1.075.235 3.096-.538 5.278-1.534-2.96-1.576-6.83-3.6-8.368.04-1.955-.056-3.843-.747-5.67.133-4.546.387-13.978 2.355-17.82"/><path fill="#078f96" d="m553.043 389.576-.93-.602c-1.184.082-1.995.272-3.051-.232l.005-.419c1.086.013 1.838.253 2.47-.277l-.478-.936.12-.358 1.16.24c1.038-.565 4.771-7.517 5.699-9.112 1.701.08 2.059-.176 3.605-.914-2.266 4.216-5.109 9.234-8.6 12.61"/><path d="M505.71 322.87c3.725-2.934 10.683-2.715 15.227-2.68 3.24.16 3.509.461 6.408.842 35.002 9.976 37.965 54.131 7.146 70.42-4.256 2.25-8.629 2.65-13.061 3.887-1.517-.208-6.467-.096-8.133-.088-.707-.408-.587-.427-1.398-.541-27.037-3.838-40.888-34.867-26.522-57.91l.62-.013.87 1.453a13.974 13.974 0 0 1 18.843-15.37"/><path fill="#ddf1f0" d="M486.867 338.24a13.974 13.974 0 0 1 18.843-15.37 13.978 13.978 0 0 1-5.224 27.002 13.98 13.98 0 0 1-13.619-11.632"/><path fill="#0d8c9f" d="M513.297 395.251c1.666-.008 6.616-.12 8.133.088 1.213.05 2.792-.035 3.693.616-4.234.95-8.437.944-12.565 1.896-2.221.512-3.021.259-4.901-1.123l.026-.49c1.974-.203 3.395-.81 5.614-.987"/><path fill="#0d8c9f" d="M520.937 320.19c-2.915-1.072-4.854-.4-7.584-1.208 4.424-.619 9.152-.539 13.429.81.637.662.43.256.563 1.24-2.899-.38-3.168-.682-6.408-.842"/><path fill="#078f96" d="M483.886 380.856c.392.536.24.678.312 1.571-.768 1.899-1.73 2.677-3.523 3.659-.8-.976-.616-.574-1.013-1.72.755-1.03 3.099-2.664 4.224-3.51"/><path fill="#0a8f9c" d="M546.22 327.331c1.365.179 1.658.195 3.045.112l.344-.021c1.328.762.754.232 1.466 1.946-1.941.094-2.81.624-4.469.58-.8-.91-.483-.95-.387-2.617"/><path fill="#0d8c9f" d="M493.193 393.032c3.098-.3 3.36.032 5.208 2.536-3.195-.064-3.803.44-5.208-2.536"/><path fill="#0d8c9f" d="M528.07 317.28c1.416-.09 1.56-.064 2.899.112 1.272 1.083.778.414 1.277 2.246-1.99-.494-3.437-.432-4.176-2.358"/><path fill="#e1eff0" d="M197.756 365.227c-.302-12.405 4.206-27.717 9.875-38.512 14.374-27.37 41.768-43.704 72.441-44.17a86.6 86.6 0 0 1 62.248 24.954c14.984 14.739 24.182 34.907 25.614 56.035.096 1.4-.096 1.754-.966 2.701.251.379.91 1.323 1.051 1.685-.19 2.643-.363 4.336-1.027 6.952.315.84.531 1.42.766 2.283l-.352.19c-.312 1.44-.99 3.847-.979 5.207-.443 1.334-.507 1.3-.27 2.75l-.306.298c-1.048 1.56-1.47 3.782-1.816 5.643-.317 1.128-.608 2.125-.84 3.283l-.448.49c-.981 1.744-1.157 2.358-1.803 4.288l-.338.648c-1.107 2.155-.195 2.198-2.219 4.065-.787 1.49-1.592 2.965-2.29 4.496-1.385 1.266-1.334 1.656-1.833 3.57l-1.373 1.294-1.552 2.264c-.243 2.466-2.232 1.714-3.216 4.434l-.397.05c-1.53 1.518-3.032 2.948-4.387 4.633-1.677 1.936-4.541 5.019-6.696 6.232l-.36-.083c-.595.486-1.528 1.192-2.035 1.718-.333.38-4.112 3.234-4.64 3.338-2 1.024-3.797 1.784-5.469 3.278-1.037.666-.97.704-2.168.89l-.373.355c-1.403 1.312-1.31 1.437-3.203 1.696-.512.099-1.248.461-1.797.67a91.99 91.99 0 0 1-70.634-1.635l-.604.013c-1.757-1.717-3.387-.81-5.197-3.17-.344-.406-4.205-2.59-5.023-3.062-.873-.059-1.919-1.296-2.883-2.075-.601-.712-2.121-1.626-2.974-2.2-1.254-1.21-2.085-1.821-3.492-2.874l-.42-.06c-.713-.951-1.171-1.434-1.976-2.276-.932-1.136-2.64-2.803-3.705-3.912l-.527-.032c-1.897-1.48-1.71-2.243-3.121-3.907l-.459-.53c-1.09-1.838-2.803-3.966-4.113-5.707l-.43-.222c-.62-2.194-.993-1.154-1.411-2.976-.63-1.082-1.63-2.936-2.378-3.861-1.583-1.376-1.442-2.4-2.25-4.574-.648-1.789-1.033-3.264-2.181-4.773-.751-.55-.544-2.624-1.146-4.045-.77-2.088-1.493-4.459-1.845-6.654-.244-.973-.423-1.402-.77-2.328.213-2.208-.198-2.944-.892-5.037-1.004-1.413-.535-9.637-.41-11.728"/><path fill="#00232f" d="M197.756 365.227c10.411 5.445 23.225 6.4 34.418 2.901a46 46 0 0 0 1.57-.522l1.066.04c1.729 2.696 2.899 7.714 4.272 10.597 3.2 6.715 12.808 17.715 19.771 20.387 1.652 1.016 2.214 1.35 4.015 2.037 3.314 1.702 8.78 3.296 12.458 3.79 17.776 2.386 35.266-3.958 46.082-18.595.907-1.23 3.598-4.824 4.22-6.256 1.538-3.55 3.204-7.656 4.364-11.36l1.003-.739 1.147.485c9.893 4.424 25.077 2.115 34.826-1.757.251.379.91 1.323 1.051 1.685-.19 2.643-.363 4.336-1.027 6.952.315.84.531 1.42.766 2.283l-.352.19c-.312 1.44-.99 3.847-.979 5.207-.443 1.334-.507 1.3-.27 2.75l-.306.298c-1.048 1.56-1.47 3.782-1.816 5.643-.317 1.128-.608 2.125-.84 3.283l-.448.49c-.981 1.744-1.157 2.358-1.803 4.288l-.338.648c-1.107 2.155-.195 2.198-2.219 4.065-.787 1.49-1.592 2.965-2.29 4.496-1.385 1.266-1.334 1.656-1.833 3.57l-1.373 1.294-1.552 2.264c-.243 2.466-2.232 1.714-3.216 4.434l-.397.05c-1.53 1.518-3.032 2.948-4.387 4.633-1.677 1.936-4.541 5.019-6.696 6.232l-.36-.083c-.595.486-1.528 1.192-2.035 1.718-.333.38-4.112 3.234-4.64 3.338-2 1.024-3.797 1.784-5.469 3.278-1.037.666-.97.704-2.168.89l-.373.355c-1.403 1.312-1.31 1.437-3.203 1.696-.512.099-1.248.461-1.797.67a91.99 91.99 0 0 1-70.634-1.635l-.604.013c-1.757-1.717-3.387-.81-5.197-3.17-.344-.406-4.205-2.59-5.023-3.062-.873-.059-1.919-1.296-2.883-2.075-.601-.712-2.121-1.626-2.974-2.2-1.254-1.21-2.085-1.821-3.492-2.874l-.42-.06c-.713-.951-1.171-1.434-1.976-2.276-.932-1.136-2.64-2.803-3.705-3.912l-.527-.032c-1.897-1.48-1.71-2.243-3.121-3.907l-.459-.53c-1.09-1.838-2.803-3.966-4.113-5.707l-.43-.222c-.62-2.194-.993-1.154-1.411-2.976-.63-1.082-1.63-2.936-2.378-3.861-1.583-1.376-1.442-2.4-2.25-4.574-.648-1.789-1.033-3.264-2.181-4.773-.751-.55-.544-2.624-1.146-4.045-.77-2.088-1.493-4.459-1.845-6.654-.244-.973-.423-1.402-.77-2.328.213-2.208-.198-2.944-.892-5.037-1.004-1.413-.535-9.637-.41-11.728"/><path fill="#0a8f9c" d="M240.503 423.393c4.041.058 7.917-.606 12.24-.614 2.185-.002 7.926.643 8.906.582 8.767.528 15.165 3.392 24.885 2.533 8.917-.784 19.213-3.608 27.866-3.104 4.688.272 9.36.765 14.003 1.475 3.736.562 11.97 2.56 14.936.493-1.677 1.936-4.541 5.019-6.696 6.232l-.36-.083c-.595.486-1.528 1.192-2.035 1.718-.333.38-4.112 3.234-4.64 3.338-2 1.024-3.797 1.784-5.469 3.278-1.037.666-.97.704-2.168.89l-.373.355c-1.403 1.312-1.31 1.437-3.203 1.696-.512.099-1.248.461-1.797.67a91.99 91.99 0 0 1-70.634-1.635l-.604.013c-1.757-1.717-3.387-.81-5.197-3.17-.344-.406-4.205-2.59-5.023-3.062-.873-.059-1.919-1.296-2.883-2.075-.601-.712-2.121-1.626-2.974-2.2-1.254-1.21-2.085-1.821-3.492-2.874l-.42-.06c-.713-.951-1.171-1.434-1.976-2.276 3.304.525 14.038-.888 17.108-2.12"/><path fill="#0a8f9c" d="M240.163 438.06c2.784 1.365 7.124 1.04 10.24.791 6.233-.493 11.209.467 17.256 1.224 4.597 2.494 27.459 2.064 32.779-.24 1.49.038 7.896-.848 10.701-.933 4.333.048 8.67.163 13 .339-1.037.666-.97.704-2.168.89l-.373.355c-1.403 1.312-1.31 1.437-3.203 1.696-.512.099-1.248.461-1.797.67a91.99 91.99 0 0 1-70.634-1.635l-.604.013c-1.757-1.717-3.387-.81-5.197-3.17"/><path fill="#00232f" d="M240.163 438.06c2.784 1.365 7.124 1.04 10.24.791 6.233-.493 11.209.467 17.256 1.224 4.597 2.494 27.459 2.064 32.779-.24 1.49.038 7.896-.848 10.701-.933 4.333.048 8.67.163 13 .339-1.037.666-.97.704-2.168.89l-.373.355c-1.403 1.312-1.31 1.437-3.203 1.696l.875-1.013-.344-.478c-3.363-.101-9.774-.338-12.912.112-8.12 1.16-14.771 2.659-23.051 2.862-8.272.202-31.056-5.936-37-2.448l-.603.013c-1.757-1.717-3.387-.81-5.197-3.17"/><path fill="#0a8f9c" d="m235.14 434.998.207-.48c3.249-2.373 28.87-2.483 32.712-.467 4.445.659 8.515.982 12.821 1.57 2.582-.015 5.846-.268 8.51-.362 4.045-.221 8.45-1.658 12.498-1.696 1.278 1.483 2.72 1.059 4.648.856l.678.334-.47.832.211.349c1.09.059 4.501.507 5.312.203l.317 1.104c-.45.522-.978 1.173-1.445 1.66-2.805.086-9.21.972-10.701.934-5.32 2.304-28.182 2.734-32.779.24-6.047-.757-11.023-1.717-17.256-1.224-3.116.248-7.456.574-10.24-.792-.344-.405-4.205-2.59-5.023-3.061"/><path fill="#098e9d" d="m235.14 434.998.207-.48c3.249-2.373 28.87-2.483 32.712-.467-1.01.448-1.8.864-2.725 1.454-3.76 2.392-15.815-1-18.749 2.28 3.116-.675 19.839-.56 22.2 1.66-.747.59-.358.404-1.126.63-6.047-.757-11.023-1.717-17.256-1.224-3.116.248-7.456.574-10.24-.792-.344-.405-4.205-2.59-5.023-3.061"/><path fill="#078f96" d="M289.39 435.26c4.045-.222 8.45-1.66 12.498-1.697 1.278 1.483 2.72 1.059 4.648.856l.678.334-.47.832.211.349c1.09.059 4.501.507 5.312.203l.317 1.104c-.45.522-.978 1.173-1.445 1.66-2.805.086-9.21.972-10.701.934-2.654-1.81-6.392.155-9.456-.4-.483-.085-2.648-1.285-3.206-1.592.955-.424 1.792-.664 2.779-.973-1.475-1.243-7.816-.117-9.675-1.248 2.582-.016 5.846-.27 8.51-.363"/><path fill="#0a8f9c" d="M289.39 435.26c4.045-.222 8.45-1.66 12.498-1.697 1.278 1.483 2.72 1.059 4.648.856l.678.334-.47.832.211.349c-3.99-.792-13.813 1.928-17.565-.675"/><path fill="#00232f" d="M234.776 432.5c9.351-1.577 17.777-2.358 27.268-1.211 3.497.42 9.466 2.1 12.607 2.114 4.72.379 11.936.563 16.653.035 11.779-2.325 23.408-3.437 35.28-1.381 2.432.42 5.222.968 7.664.568-.333.38-4.112 3.234-4.64 3.338-2 1.024-3.797 1.784-5.469 3.278-4.33-.176-8.667-.291-13-.34.467-.487.995-1.138 1.445-1.66l-.317-1.104c-.81.304-4.221-.144-5.312-.203l-.21-.35.469-.831-.678-.334c-1.928.203-3.37.627-4.648-.856-4.048.038-8.453 1.475-12.498 1.696-2.664.094-5.928.347-8.51.363-4.306-.59-8.376-.912-12.821-1.57-3.841-2.017-29.463-1.907-32.712.466l-.207.48c-.873-.059-1.919-1.296-2.883-2.075.84-.11 1.684-.274 2.519-.424"/><path fill="#0a8f9c" d="M302.254 433.52c2.37-1.84 25.162-.7 28.053 1.094l-.197.35c-.296.54-.182.325-.502 1-2 1.023-3.797 1.783-5.469 3.277-4.33-.176-8.667-.291-13-.34.467-.487.995-1.138 1.445-1.66l-.317-1.104c-.81.304-4.221-.144-5.312-.203l-.21-.35.469-.831-.678-.334c-1.928.203-3.37.627-4.648-.856z"/><path fill="#0d8c9f" d="m301.888 433.563.366-.042.416.045c4.845.517 6.426-.064 12.341 1.09l.04.235.79.094c-1.598.106-2.795-.296-3.574 1.152-.81.304-4.221-.144-5.312-.203l-.21-.35.469-.831-.678-.334c-1.928.203-3.37.627-4.648-.856"/><path fill="#00232f" d="M240.503 423.393c4.041.058 7.917-.606 12.24-.614 2.185-.002 7.926.643 8.906.582 8.767.528 15.165 3.392 24.885 2.533 8.917-.784 19.213-3.608 27.866-3.104 4.688.272 9.36.765 14.003 1.475 3.736.562 11.97 2.56 14.936.493-1.677 1.936-4.541 5.019-6.696 6.232l-.36-.083c.27-.528 2.717-2.837 3.307-3.418-8.934-1.032-18.267-3.184-27.312-3.016-5.283.098-11.419 1.234-16.632 2.026-3.747.358-5.563.923-10.032 1.048-6.392.176-10.371-.61-16.446-1.117-1.546-1.317-15.546-2.123-18.063-2.045-3.424.104-23.939 2.328-25.314 3.464l-.42-.06c-.713-.951-1.171-1.434-1.976-2.276 3.304.525 14.038-.888 17.108-2.12"/><path fill="#0d8c9f" d="M269.168 426.43c6.075.507 10.054 1.293 16.446 1.117 4.469-.125 6.285-.69 10.032-1.048-.411.59-.216.347-.736.923l-.39.421c.222.536.195.248.022.87-4.267.485-2.088 1.54-4.912 2.488-1.248.418-8.659-.12-9.64-.76l.482-.22c1.92.246 2.923.188 4.856.16-4.229-1.48-5.112-.802-9.4-1.37-1.741-.232-5.045-1.39-6.757-2.01z"/><path fill="#0d8c9f" d="m229.283 430.723.218-1.87c2.3-1.578 3.71-.044 5.36 1.558.52.504.066 1.438-.085 2.088-.835.15-1.68.315-2.519.424-.601-.712-2.121-1.626-2.974-2.2"/><path fill="#078f96" d="M274.651 433.403c1.696-1.12 15.016-.781 16.653.035-4.717.528-11.933.344-16.653-.035"/><path fill="#0a8f9c" d="M211.47 411.425c1.922-1.376 7.928.018 10.422-.032 9.83-.2 19.046-2.808 28.874-3.302 11.571-.578 23.282 4.195 34.642 3.448 9.675-.634 17.84-3.202 27.787-3.208 3.71-.04 7.416.232 11.08.81 3.957.644 9.835 1.956 13.627 1.977l.378.357-.314.267c-.526.435-1.046.83-1.584 1.245-.075.766.104.822.442 1.67-1.69.592-3.192-1.008-4.616-.288q.612.858 1.243 1.706c.496.678.304.39.715 1.13 5.805.012 12.12 2.54 17.173-1.564-.243 2.466-2.232 1.714-3.216 4.434l-.397.05c-1.53 1.518-3.032 2.948-4.387 4.633-2.965 2.067-11.2.07-14.936-.493a150 150 0 0 0-14.003-1.475c-8.653-.504-18.949 2.32-27.866 3.104-9.72.859-16.118-2.005-24.885-2.533-.98.06-6.721-.584-8.905-.582-4.324.008-8.2.672-12.241.614-3.07 1.232-13.804 2.645-17.108 2.12-.932-1.136-2.64-2.803-3.705-3.912l-.527-.032c-1.897-1.48-1.71-2.243-3.121-3.907l-.459-.53c-1.09-1.838-2.803-3.966-4.113-5.707"/><path fill="#098e9d" d="m260.171 416.926.695.05c8.916.689 16.062 3.23 25.478 2.598 10.278-.688 19.131-3.397 29.48-3.168 10.504.235 20.067 3.85 30.467 2.89.72-.066.55-.04 1.243.267l.192.563c-1.53 1.517-3.032 2.947-4.387 4.632-2.965 2.067-11.2.07-14.936-.493a150 150 0 0 0-14.003-1.475c-8.653-.504-18.949 2.32-27.866 3.104-9.72.859-16.118-2.005-24.885-2.533.624-1.822 1.27-2.64.223-4.318-1.192-.805-1.575-.725-3-.824l-.46-.03c.708-1.076.343-.594 1.759-1.263"/><path fill="#078f96" d="m300.95 420.414.352.085c1.28.307 2.44.432 3.09 1.494-1.221.808-1.576.528-3.317.608-1.413.14-1.92.266-3.336-.03 1.619-.717 2.027-.861 3.21-2.157"/><path fill="#00232f" d="M215.583 417.131c18.134 1.798 27.933-4.312 47.03-1.8 1.568.28 5.678 1.126 7.011 1.056 10.958 4.214 30.086-.96 41.371-1.55 7.995-.418 15.33.705 23.17 2.369 5.806.01 12.12 2.539 17.174-1.565-.243 2.466-2.232 1.714-3.216 4.434l-.397.05-.192-.562c-.694-.306-.523-.333-1.243-.266-10.4.96-19.963-2.656-30.467-2.891-10.349-.23-19.202 2.48-29.48 3.168-9.416.632-16.562-1.91-25.478-2.597l-.695-.051c-1.416.67-1.051.187-1.759 1.264l.46.03c1.425.098 1.808.018 3 .823 1.046 1.678.401 2.496-.223 4.318-.98.06-6.721-.584-8.905-.582-4.324.008-8.2.672-12.241.614-3.07 1.232-13.804 2.645-17.108 2.12-.932-1.136-2.64-2.803-3.705-3.912l-.527-.032c-1.897-1.48-1.71-2.243-3.121-3.907z"/><path fill="#078f96" d="M233.156 418.785c5.107-2.03 21.82-3.176 27.015-1.86-1.416.67-1.051.188-1.759 1.265l.46.03c1.425.098 1.808.018 3 .823 1.046 1.678.401 2.496-.223 4.318-.98.06-6.721-.584-8.905-.582-4.324.008-8.2.672-12.241.614.287-.64.179-.278.267-1.104l-2.412-.795.144-.49 1.242-.478-.695-1.805c-2.068.08-3.807.138-5.893.064"/><path fill="#0a8f9c" d="M239.05 418.72c4.36-.386 8.49-.834 12.063 1.52 1.48.035 2.979-.117 4.188.649l.239.506c-.729.619-1.5.632-2.527.496-5.296-.698-7.72-2.168-13.269-1.365z"/><path fill="#098e9d" d="M219.69 421.6c-.236-.591-1.081-1.738-1.48-2.325l.529-.376c5.698.6 9.057-.114 14.417-.114 2.086.074 3.825.016 5.893-.064l.695 1.805-1.242.477-.144.49 2.412.796c-.088.826.02.464-.267 1.104-3.07 1.232-13.804 2.645-17.108 2.12-.932-1.136-2.64-2.803-3.705-3.912"/><path fill="#078f96" d="M262.613 415.331c.99-.245 1.24-.277 2.22-.085 2.506.488 7.413-1.89 9.738-.544l-.323.605c-2.232.29-2.938-.024-4.624 1.08-1.333.07-5.443-.776-7.01-1.056"/><path fill="#098e9d" d="M220.025 403.323c12.496-.04 23.166-3.459 35.497-3.261 3.124.05 6.188 2.515 9.072 3.541 6.369 2.21 14.142 3.262 20.846 2.995a49.2 49.2 0 0 0 14.07-2.747c3.49-1.21 8.752-3.864 12.181-3.87 14.293-.029 28.085 6.086 42.44 2.724 1.6-.376 3.056-.87 4.648-.592.203.96.048.69-.392 1.904-.787 1.49-1.592 2.965-2.29 4.496-1.385 1.266-1.334 1.656-1.833 3.57l-1.373 1.294-1.552 2.264c-5.053 4.104-11.368 1.576-17.173 1.565-.41-.741-.219-.453-.715-1.13a96 96 0 0 1-1.243-1.707c1.424-.72 2.926.88 4.616.288-.338-.848-.517-.904-.442-1.67.538-.416 1.058-.81 1.584-1.245l.314-.267-.378-.357c-3.792-.021-9.67-1.333-13.627-1.976a66.4 66.4 0 0 0-11.08-.81c-9.947.005-18.112 2.573-27.787 3.207-11.36.747-23.07-4.026-34.642-3.448-9.828.494-19.044 3.102-28.874 3.302-2.494.05-8.5-1.344-10.422.032l-.43-.222c-.62-2.194-.993-1.154-1.411-2.976-.63-1.082-1.63-2.936-2.378-3.861l-.774-2.243.57-.506 1.148.33c4.46 1.312 7.141 1.222 11.83 1.376"/><path fill="#00232f" d="M233.858 408.654c9.239-1.896 20.234-2.68 29.53-1.357 6.082.864 14.431 2.925 20.503 2.66 11.379-.492 19.525-3.812 31.405-3.266 9.808.454 17.288 2.747 26.787 3.326 3.904.237 10.075-.798 14.013-1.504-1.384 1.266-1.333 1.656-1.832 3.57l-1.373 1.294-1.552 2.264c-5.053 4.104-11.368 1.576-17.173 1.565-.41-.741-.219-.453-.715-1.13a96 96 0 0 1-1.243-1.707c1.424-.72 2.926.88 4.616.288-.338-.848-.517-.904-.442-1.67.538-.416 1.058-.81 1.584-1.245l.314-.267-.378-.357c-3.792-.021-9.67-1.333-13.627-1.976a66.4 66.4 0 0 0-11.08-.81c-9.947.005-18.112 2.573-27.787 3.207-11.36.747-23.07-4.026-34.642-3.448-9.828.494-19.044 3.102-28.874 3.302-2.494.05-8.5-1.344-10.422.032l-.43-.222c-.62-2.194-.993-1.154-1.411-2.976 7.08 3.043 16.94.926 24.23.427"/><path fill="#098e9d" d="M338.28 411.475c6.267.39 10.734-.808 15.216-.51l.267.348-.872 2.064-1.552 2.264c-5.053 4.104-11.368 1.576-17.173 1.565-.41-.741-.219-.453-.715-1.13a96 96 0 0 1-1.243-1.707c1.424-.72 2.926.88 4.616.288-.338-.848-.517-.904-.442-1.67.538-.416 1.058-.81 1.584-1.245z"/><path fill="#0a8f9c" d="m207.251 404.366-.774-2.243.57-.506 1.148.33c4.46 1.312 7.141 1.222 11.83 1.376 2.285 1.43 11.016-.818 12.12.744 1.954.376 4.57.36 5.889 1.254l.339.602-.115.318-.377.65c-2.55.52-2.582.059-4.023 1.763-7.289.499-17.15 2.616-24.23-.427-.629-1.082-1.629-2.936-2.377-3.861"/><path fill="#0d8c9f" d="M232.146 404.067c1.953.376 4.57.36 5.888 1.254l.339.602-.115.318c-2.65.48-5.16.749-6.112-2.174"/><path fill="#0d8c9f" d="M328.32 404.11c2.075.704 6.776-.125 8.782 1.003.754.424.637.448 1.752.933 1.245-.843 2.498-.616 4.042-.584l-.042.219-.798.496c-1.808-.267-2.01-.163-3.69.58-1.36.116-4.174 1.02-5.379.889-4.293-3.256-4.528-.605-7.363-2.33l.195-.411z"/><path fill="#078f96" d="M253.992 401.718c1.646-.224 2.814.24 4.245.917l.23 1.006-.669.664c-1.086.08-1.956.18-3.029.32-2.039.226-3.153.62-4.798-.483l-.067-.688c1.195-1.387 2.174-1.299 4.088-1.736"/><path fill="#0d8c9f" d="M296.008 405.998c1.56-.304 3.112-.517 4.432.248l.016.693c-1.709.414-2.578.33-4.237-.101z"/><path fill="#078f96" d="M318.4 402.086c2.387-.053 3.454.072 5.58 1.104-2.236.987-3.825.413-5.58-1.104"/><path fill="#098e9d" d="M310.86 398.384c10.226-7.426 5.338-7.344 18.975-4.346a68.8 68.8 0 0 0 19.96 1.488c2.285-.152 11.779-1.83 12.539-1.646l.413 1.136c-.981 1.744-1.157 2.358-1.803 4.288-11.304 6.86-36.64-.94-50.085-.92"/><path fill="#0a8f9c" d="m202.82 395.02.433-1.23c1.941-.504 9.492 1.512 12.078 1.738 1.492.134 3.701.046 4.993.15 8.788.71 18.628-3.302 26.692-3.483 2.668 2.275 4.872 4.12 7.695 6.181-19.769-.056-27.95 6.84-49.71 1.416-.648-1.789-1.033-3.264-2.181-4.773"/><path fill="#0d8c9f" d="M335.694 393.163c-4.52-.203-9.678-2.04-14.627-2.512l-.595-.053-.373-.464c1.24-1.582 2.525-3.587 4.035-4.795 6.973-.763 19.917 4.339 28.184 2.15 2.57-.68 11.816-2.723 13.533-1.889-1.048 1.56-1.47 3.782-1.816 5.643-9.87 2.653-16.021 3.013-26.168 2.443-1.187-.04-1.112-.008-2.173-.523"/><path fill="#0a8f9c" d="M335.694 393.163c-1.472-1.579-3.92-1.488-4.163-3.133 4.675-2.115 6.755-1.19 11.501-.464 2.176.333 5.192.37 7.707.736.733.626.456.245.819 1.154l.418.275-.232-.093c-2.32 1.666-10.082.674-13.877 2.048-1.187-.04-1.112-.008-2.173-.523"/><path fill="#0a8f9c" d="m198.167 376.955.898-.963c13.89 4.142 22.79 5.472 37.14 1.72 1.18-.309 3.095 3.944 3.644 4.92-.437.795-.19.667-1.23.907-13.007 3.013-26.724 3.915-39.3-1.357l-.26-.19c.213-2.208-.198-2.944-.892-5.037"/><path fill="#0d8c9f" d="M226.388 380.691c2.213-.157 3.967-1.075 5.647.392-.06.675-.008.803.146 1.456-1.66.141-5.407.779-6.267-.83z"/><path fill="#0d8c9f" d="M366.992 374.872c-1.498.086-8.013 2.046-10.154 2.502-8.507 1.821-17.315.765-25.768-.894-1.219-.24-1.53-.637-2.075-1.464.36-1.362 1.259-4.445 2.355-5.1 1.501.162 5.693 1.116 6.797 1.346 8.008 1.672 16.261.845 24.027-1.542 1.957-.602 3.842-1.384 5.845-1.8-.19 2.643-.363 4.336-1.027 6.952"/><path fill="#0a8f9c" d="M208.459 386.528c15.18 2.264 18.467.544 32.802-1.786.853 1.125 3.602 4.602 4.07 5.65-.632.315-13.633 2.643-15.453 2.912a65.4 65.4 0 0 1-19.156-.125c-2.09-.333-4.408-.987-6.372-1.237 1.803-1.01 2.945.133 4.375-2.046.222-2.266.456-1.312-.266-3.368"/><path fill="#0d8c9f" d="M333.63 378.651c9.288 1.227 18.328 2.155 27.522-.605 1.88-.566 4.787-2.219 6.254-.702-.312 1.44-.99 3.848-.979 5.208-11.381 4.667-26.627 3.984-38.461 1.408 2.24-.832 4.405-.573 6.845-.557a50 50 0 0 1-1.181-4.752"/><path fill="#078f96" d="M199.829 384.32c1.125.302 8.236 1.963 8.63 2.208.722 2.056.488 1.102.266 3.368-1.43 2.18-2.572 1.035-4.375 2.046-.435-.216-2.124-.774-2.676-.968-.77-2.088-1.493-4.459-1.845-6.654"/><path fill="#0a8f9c" d="M327.74 377.808c1.551.128 4.847.131 5.89.843a50 50 0 0 0 1.181 4.752c-2.44-.016-4.605-.275-6.845.557-1.456-.397-1.347-.12-2.147-1.066-.101-1.334 1.248-3.323 1.92-5.086"/><path fill="#098e9d" d="M198.333 367.384c7.193 3.635 16.285 4.912 24.27 4.552 2.624-.117 10.192-2.714 11.73-2.01 1.112 1.53 1.36 3.63 2.072 5.432-7.884 4.57-29.599 3.44-37.521-1.424-.857-.526-.576-5.392-.551-6.55"/><path d="M255.012 317.283c15.284-10.41 33.772-10.237 50.17-2.797-.926 3.778-8.376 6.864-12.043 6.957 13.176 4.547 22.48 12.904 26.581 26.587.78 2.59.27 5.378 1.54 7.97.807 2.014.564 5.1 1.543 6.264l.904.347c.619 2.053-.85 3.227-.15 5.627 1.19.493 2.214.456 3.283-.352l-.02-.638c-1.265-1.138-2.51-1.674-2.662-2.864l.84-.8c2.021.051 2.453 2.496 3.368 4.187 1.546-.776.688-.883 2.136-1.48l.493 1.216-1.003.739c-1.16 3.704-2.826 7.81-4.365 11.36-.621 1.432-3.312 5.026-4.219 6.256-10.816 14.637-28.306 20.981-46.082 18.595-3.678-.494-9.144-2.088-12.458-3.79-1.801-.688-2.363-1.021-4.015-2.037-6.963-2.672-16.571-13.672-19.77-20.387-1.374-2.883-2.544-7.901-4.273-10.597l-1.066-.04c.594-.574.56-.803.935-1.64-1.733-6.032-1.079-10.123-.28-16.2.106-4.147 3.234-11.744 5.048-15.438 4.327-7.184 8.455-12.522 15.565-17.045"/><path fill="#0a8f9c" d="M321.26 356c.807 2.014.564 5.1 1.543 6.264l.904.347c.619 2.053-.85 3.227-.15 5.627 1.19.493 2.214.456 3.283-.352l-.02-.638c-1.265-1.138-2.51-1.674-2.662-2.864l.84-.8c2.021.051 2.453 2.496 3.368 4.187 1.546-.776.688-.883 2.136-1.48l.493 1.216-1.003.739c-1.16 3.704-2.826 7.81-4.365 11.36-.621 1.432-3.312 5.026-4.219 6.256-10.816 14.637-28.306 20.981-46.082 18.595-3.678-.494-9.144-2.088-12.458-3.79-1.801-.688-2.363-1.021-4.015-2.037 5.793-2.227 2.241-3.555 3.259-5.928l1.022-.32c.8-.958.5-.387.354-2.118.372.176 2.87 1.34 3.061 1.483 3.614 1.701 8.017 2.864 11.982 3.299a38.27 38.27 0 0 0 28.325-8.403c10.496-8.475 13.02-18.03 14.403-30.643"/><path fill="#0d8c9f" d="M263.488 390.264c.372.176 2.87 1.34 3.061 1.483l-1.11.376-.366.781c.557.95.75.886 1.786 1.384-1.41 1.96-4.307 2.352-4.656 5.086l.665 1.293c-1.801-.688-2.363-1.021-4.015-2.037 5.793-2.227 2.241-3.555 3.259-5.928l1.022-.32c.8-.958.5-.387.354-2.118"/><path fill="#0d8c9f" d="M312.54 384.34c1.12 1.298 2.404 3.175 2.426 4.93-.99.56-.822.416-1.979.693-.41.075-.768-.064-1.23-.157.089-2.368-.5-3.582.782-5.467"/><path fill="#0d8c9f" d="m290.979 396.307 1.221.027c.734.994.587.453.475 1.672l-.808.624-1.925-.352c-1.472.117-1.52.23-2.494-.694l.136-.61c1.51-1.008 1.206-.67 3.395-.667"/><path fill="#098e9d" d="M255.012 317.283c15.284-10.41 33.772-10.237 50.17-2.797-.926 3.778-8.376 6.864-12.043 6.957l-.232-.299c-1.248.003-5.515-.848-7.981-.965-5.502.027-8.224-.155-13.547 1.35-.51.6-.715.591-.717 1.106a14.135 14.135 0 0 0-19.102 15.627l-.722-1.715-.598-.107c-3.763 3.086-3.97 11.982-5.65 14.75-.294-5.632-2.554-4.77-.176-11.067l-.514-.24c-.984.581-.895 1.11-1.44 2.456l-.408-.165c-.237-1.534.419-2.195 1.046-3.928l-.321-.643-.88.925-.59-.048c-.928-1.514-.575-2.33-1.86-4.152 4.327-7.184 8.455-12.522 15.565-17.045"/><path fill="#0d8c9f" d="M284.926 320.18c-1.32-.964-2.048-.748-3.662-.796l-3.314-.125c3.677-1.045 10.474-.603 14.218.53.774.766.579.3.739 1.355-1.248.003-5.515-.848-7.981-.965"/><path fill="#0a8f9c" d="M234.4 349.766c.105-4.147 3.233-11.744 5.047-15.438 1.285 1.822.932 2.638 1.86 4.152l.59.048.88-.925.32.643c-.626 1.733-1.282 2.394-1.045 3.928l.409.165c.544-1.347.455-1.875 1.439-2.456l.514.24c-2.378 6.296-.118 5.435.177 11.067-.244 14.157.563 21.845 11.06 32.864 2.238 2.35 5.229 4.184 7.837 6.21.146 1.731.445 1.16-.354 2.118l-1.022.32c-1.018 2.373 2.534 3.701-3.259 5.928-6.963-2.672-16.571-13.672-19.77-20.387-1.374-2.883-2.544-7.901-4.273-10.597l-1.066-.04c.594-.574.56-.803.935-1.64-1.733-6.032-1.079-10.123-.28-16.2"/><path fill="#078f96" d="M255.542 391.531c1.137.757 1.51.693 2.86.81l.439.035c.973.76.893.72 1.346 1.883-.81.71-.335.44-1.63.493-1.614-.029-4.095-.389-5.228-1.592l.148-.666z"/><path fill="#ddf1f0" d="M258.308 323.6a14.137 14.137 0 0 1 21.042 14.877 14.13 14.13 0 0 1-13.985 11.438 14.13 14.13 0 0 1-13.805-11.653 14.135 14.135 0 0 1 6.748-14.662"/><path fill="#0d8c9f" d="M305.182 314.486c12.378 7.192 20.71 16.728 24.621 30.81 1.477 5.318 2.147 15.102 1.192 20.432l-.493.563c-1.448.597-.59.704-2.136 1.48-.915-1.69-1.347-4.136-3.368-4.187l-.84.8c.152 1.19 1.397 1.726 2.661 2.864l.021.638c-1.069.808-2.093.845-3.282.352-.702-2.4.768-3.574.15-5.627l-.905-.347c-.979-1.165-.736-4.25-1.544-6.264-1.27-2.592-.76-5.38-1.539-7.97-4.1-13.683-13.405-22.04-26.581-26.587 3.667-.093 11.117-3.179 12.043-6.957"/><path fill="#0a8f9c" d="M306.379 317.587c1.37.157 1.437-.085 2.197.683-.696 2.96-4.837 4.037-6.712 5.226-1.13-.144-1.085-.077-1.978-.76.221-1.629 4.904-3.709 6.493-5.149"/><path fill="#d8f2ec" d="M234.679 365.966c-1.667-.008-2.645-.355-3.343-1.918.434-.37.24-.226.743-.554l.366-.232c.686-3.483-.375-7.715.212-11.344.248-1.539.48-1.334 1.742-2.152-.799 6.077-1.453 10.168.28 16.2"/><path fill="#070005" d="M478.9 440.627c1 .664.485.584 1.517.582 1.509.73 3.338 1.682 4.853 2.317-3.192-.067-8.675.739-10.403-.541-.176-1.352-.301-.723.488-1.928 1.366.349 1.435.424 2.89.378z"/><path fill="#070005" d="m603.987 381.486.416.394c.656 2.488-.624 3.904-1.925 6.184-1.496-2.58-1.133-5.048 1.51-6.578"/><path fill="#070005" d="M596.115 403.78c1.206.634 1.254.58 2.134 1.695.138 1.579.261.832-.459 2.31-1.24-.723-1.395-.758-2.456-1.792-.16-1.422-.237-.683.781-2.214"/><path d="M569.23 518.446c6.965-7.325 18.424-7.976 26.17-1.48 7.745 6.493 9.105 17.893 3.105 26.027-6 8.133-17.29 10.2-25.784 4.717-8.491-5.483-11.254-16.624-6.31-25.44-.885-.163-1.29-.867-1.64-1.619.758-1.322 2.39-3.194 4.011-2.97z"/><path fill="#e1eff0" d="M566.411 522.27c-.885-.163-1.29-.867-1.64-1.619.758-1.322 2.39-3.194 4.011-2.97l.448.765a19.1 19.1 0 0 0-2.819 3.824"/><path fill="#ddf1f0" d="M580.691 519.886c6.427-1.328 12.726 2.77 14.112 9.187 1.39 6.413-2.65 12.749-9.05 14.2-6.488 1.466-12.931-2.638-14.336-9.139-1.408-6.504 2.76-12.904 9.274-14.248"/><path d="M382.822 512.606c10.48-.83 19.664 6.95 20.576 17.421.91 10.472-6.795 19.72-17.259 20.715-10.581 1.005-19.957-6.805-20.88-17.397-.92-10.592 6.965-19.904 17.563-20.739"/><path fill="#ddf1f0" d="M382.003 519.851c6.507-1.296 12.827 2.955 14.083 9.472 1.256 6.515-3.032 12.808-9.555 14.024-6.47 1.208-12.699-3.037-13.944-9.496-1.243-6.461 2.963-12.714 9.416-14"/><path d="M248.326 513.87c9.948-.592 20.2 2.243 16.864 15.739-.85 3.434-4.419 6.072-7.578 7.544 2.136 2.848 5.626 6.282 7.082 9.49-.202 1.072-.723 1.96-1.464 2.744-3.33 3.528-7.388-2.85-9.137-5.05l-4.9-6.379-5.474-.352c-.093 3.141 1.047 9.547-1.474 11.901-.67.63-1.712.843-2.601.702-1.032-.163-1.837-.827-2.389-1.683-2.411-3.73-1.402-28.387-.163-33.376 2.365-1.925 8.046-1.323 11.234-1.28"/><path fill="#ddf1f0" d="M243.757 520.742c5.73.221 20.19-1.757 13.117 9.035-3.154 2.178-9.217 1.48-13.166 1.394q-.027-5.216.05-10.429"/><path d="M623.718 513.329c4.67 2.085 17.795 19.36 21.33 24.304.6-7.608-2.109-16.064 1.03-23.091.421-.344.747-.536 1.296-.608 1.192-.157 2.467-.085 3.41.755 2.033 1.81 1.491 25.464 1.283 29.597-.122 2.475-.213 4.016-2.128 5.757-.904.166-1.909.352-2.826.195-2.672-.464-17.078-19.427-19.838-22.707-.49 5.835-.008 11.254-.112 17.054-.133 1.784-.125 3.888-1.789 4.994-1.813 1.203-3.71.246-4.87-1.298-.722-3.707-.898-29.614-.047-33.056.81-1.171 1.888-1.371 3.261-1.896"/><path d="M294.902 513.355c1.552-.141 4.085-.362 4.922.872 2.95 4.352 14.384 29.976 14.3 33.326-.4 1.032-.665 1.629-1.726 2.125-4.555 2.13-6-3.157-7.283-6.179l-5.797.11c-2.694.034-8.126-.371-10.499.314-2.728.787-2.77 9.659-8.8 5.539-.597-.933-1.31-2.576-.77-3.587 3.082-5.805 11.365-29.709 15.653-32.52"/><path fill="#ddf1f0" d="M291.064 536.715c1.19-2.429 3.696-10.274 5.883-11.061 1.288.85 2.235 4.288 2.835 5.93.829 1.593 1.517 2.614 1.757 4.39l-.363.59c-.28.002-1.112.029-1.357-.009-2.4.208-6.237.136-8.755.16"/><path fill="#e1eff0" d="M299.819 536.555c-1.685-1.146-3.155-.813-5.285-.786l.218-.267 2.696.013c.547-.992.504-.496.435-1.482l-.837.88-.067-.47c1.31-1.746.76-2.133 2.803-2.858.829 1.592 1.517 2.613 1.757 4.389l-.363.59c-.28.002-1.112.029-1.357-.009"/><path d="M155.394 529.153c3.165-3.504 16.164-18.619 20.474-14.566 2.08 4.371-9.662 13.531-12.928 16.664a601 601 0 0 0 10.407 10.328l.306.296.506.502c2.236 2.184 3.653 3.53 2.533 6.845-4.733 4.87-13.839-8.79-18.128-11.904-1.3-.197-.673-.277-1.923.381-1.983 2.958-.563 6.507-1.162 9.752-.163.886-.975 1.867-1.783 2.291-.876.459-1.813.63-2.762.28-.985-.363-1.73-1.075-2.187-2.01-.665-1.358-.913-30.225-.035-32.195.664-1.494 1.834-1.875 3.258-2.44 4.825 2.144 3.518 5.864 3.533 10.408.006 1.778-.076 3.589-.11 5.368"/><path d="M198.144 513.814c5.085.216 14.633-.45 18.983.421.769.534 1.868 1.571 2.058 2.464 1.206 5.683-14.592 3.739-17.69 3.662l-.008 8.477c3.488-.021 14.34-.808 15.279 1.083 4.469 9.008-11.383 3.616-14.797 5.776-.545.344-.338.49-.498 1.706l-.025 6.227c4.992.07 10.137-.304 15.08.184 1.373.136 3.203 2.08 3.204 3.72-2.545 4.39-18.32 2.53-23.13 2.427-3.622-.078-2.158-30.4-1.771-34.382.098-1.018 2.433-1.624 3.315-1.765"/><path fill="#e1eff0" d="M679.513 747.809c15.968-.525 14.515 9.328 14.307 21.85-.038 2.227.704 7.963-.707 9.15-1.275.093-1.803.243-2.981-.27-.82-1.106-.51-3.071-.467-4.56-6.517 6.603-18.723 9.48-22.333-1.346-1.155-12.35 13.616-11.701 21.845-11.71.008-.882.027-1.778-.037-2.666-.424-7.752-11.31-9.003-15.056-3.232-1.494 2.304-3.651 3.056-5.94 1.08-.22-2.608 3.345-4.616 5.196-6.117 1.696-1.374 4.045-1.731 6.173-2.18"/><path fill="#ddf1f0" d="M688.64 764.316c4.012 5.477-6.655 15.04-15.076 10.216-7.622-9.736 9.968-10.03 15.077-10.216"/><path fill="#e1eff0" d="M727.558 747.796a64 64 0 0 1 3.027-.014c13.648.384 11.757 11.739 11.659 21.883-.022 2.245.693 7.955-.696 9.15-1.272.087-1.8.229-2.984-.262-.83-1.496-.502-2.63-.478-4.541-7.03 6.733-18.088 9.424-22.41-1.438.01-15.605 18.354-9.218 21.917-13.03.467-2.97-1.056-5.77-3.685-7.276-6.531-3.742-11.022 4.018-15.435 5.058-1.307-.36-.76-.008-1.597-1.234-.043-1.142.098-1.542.762-2.446 2.862-3.893 5.219-4.25 9.243-5.616z"/><path fill="#ddf1f0" d="M730.734 764.614c2.184-.157 3.638-.264 5.859-.168 5.11 3.152-3.283 10.95-8.51 11.499-4.906-.128-10.727-2.256-6.08-8.41 2-2.643 5.614-2.803 8.731-2.92"/><path d="M507.022 513.038c4.525-1.41 15.92 3.485 12.717 8.725-4.536 2.888-6.154-1.677-10.277-2.25-2.619-.84-8.845 1.597-7.019 5.114 3.64 6.534 16.536 2.422 19.048 11.864 2.542 9.55-5.696 13.995-13.976 14.296-5.304-.253-15.12-2.613-12.354-9.906 3.109-2.758 6.29 2.17 9.378 2.816 1.582.333 5.371.168 7.12.136 1.808-1.208 3.438-2.446 3.51-4.723-2.358-4.952-19.07-3.403-19.795-13.853-.581-8.371 3.89-11.638 11.648-12.219"/><path fill="#e1eff0" d="M647.745 747.766c11.258.008 15.304 6.846 15.61 17.176-7.176.022-14.498.051-21.685-.061-1.45-.024-1.205.083-1.979 1-.7 3.165 1.798 6.52 4.26 8.253a9.5 9.5 0 0 0 7.455 1.534c3.005-.659 4.483-2.294 6.024-4.752l.267-.43.53-.864c1.582-.565 3.2-.352 4.918-.301-1.888 4.107-4.664 8.56-9.31 9.83-20.544 5.615-27.864-26.558-6.09-31.385"/><path fill="#ddf1f0" d="M647.923 751.702c5.11-.381 12.534 5.003 10.406 9.376-1.512.827-4.944.502-6.96.496-3.379.032-9.803.83-11.83-1.04-.368-2.184.958-3.394 2.28-5.013 2.008-2.453 3.014-3.03 6.104-3.819"/><path d="M449.502 513.315c1.717.046 2.808.278 3.904 1.71 1.187 3.869-9.448 23.448-11.45 29.013-7.403 20.563-18.374-13.357-20.56-18.29-.942-2.433-3.763-7.142-3.203-9.686.213-.968.882-1.712 1.792-2.077.976-.392 2.162-.323 3.109.128 3.059 1.45 10.888 21.93 12.797 26.101 3.096-7.685 7.398-17.779 11.363-25.15.355-.658 1.568-1.373 2.248-1.749"/><path d="M328.267 513.849c4.781-.027 23.547-1.707 24.661 3.378-1.62 4.792-7.738 3.827-11.856 3.787-.445 6.88-.253 15.437-.277 22.443l-.005 1.474c-.019 5.512-3.736 7.744-7.13 2.456l.012-26.421-3.018.035c-3.083.053-7.838-.296-8.672-4.03.821-2.97 3.706-3.088 6.285-3.122"/><path fill="#e1eff0" d="M601.462 747.796c5.552-.163 14.872 1.5 13.597 9.074-1.376 1.25-3.264.358-4.144-.97-3.64-5.491-11.186-6.582-14.56-.248-.024 8.269 23.07 1.61 19.704 18.997q-.417.544-.866 1.056c-2.579 2.904-5.894 3.8-9.664 3.995-5.475.09-15.15-1.494-13.734-10.022.075-.461.723-.514 1.166-.658 3.946.824 3.186 3.989 6.138 6.045 4.55 3.165 17.907-1.128 10.96-7.645-3.56-3.342-16.842-2.542-18.088-9.262-1.314-7.088 4.238-9.077 9.491-10.362"/><path d="M471.577 514.067c3.24-.277 5.093-.002 5.448 3.843.325 3.541.229 7.168.21 10.728-.032 5.893.048 11.803-.13 17.69-.054 1.74-1.19 2.766-2.4 3.8-3.918.078-4.787-.917-4.931-4.789-.144-6.57-.2-13.194-.133-19.768.04-3.88-.683-8.506 1.936-11.504"/><path d="M542.035 513.68c1.091.174 3.91.774 3.896 2.254-.093 10.01 1.112 22.352.067 32.208-.747 1.243-1.4 1.499-2.624 2.264-1.32-.248-3.57-.8-3.808-1.861-.888-3.979-.725-30.624-.128-32.843 1.024-1.27 1.101-1.283 2.597-2.021"/><path fill="#e1eff0" d="m623.39 736.23.475-.005.746.003c1.347-.003 2.064-.192 3.158.576.45 1.968.27 10.76.266 13.392l-.029 28.616-4.616.088z"/><path fill="#e1eff0" d="M751.51 748.566c1.496-.045 2.624-.226 3.995.33.896 1.774.528 26.078.523 29.998-1.272.011-3.552.203-4.483-.429-.35-4.49-.363-25.419-.035-29.899"/><path fill="#e1eff0" d="M704.425 772.158a3.49 3.49 0 1 1 1.872 6.724 3.49 3.49 0 0 1-1.872-6.724"/><path fill="#e1eff0" d="M751.846 737.716a3.43 3.43 0 0 1 4.712 1.24 3.429 3.429 0 1 1-4.712-1.24"/></svg>